<svg xmlns="http://www.w3.org/2000/svg" viewBox="0 0 419.52756 419.52756"><path fill="#19764c" d="M209.76378,419.52752c115.85019,0,209.76378-93.91359,209.76378-209.76377S325.614,0,209.76378,0,0,93.91355,0,209.76375,93.91359,419.52752,209.76378,419.52752"/><polygon fill="#fff" points="163.256 143.776 126.281 248.891 89.211 144.022 89.124 143.776 71.29 143.776 51.92 268.895 69.018 268.895 83.555 174.348 116.849 268.648 116.937 268.895 135.261 268.895 168.642 174.711 182.951 268.581 182.998 268.895 200.096 268.895 180.728 143.776 163.256 143.776"/><polygon fill="#fff" points="348.485 143.776 331.013 143.776 294.038 248.891 256.97 144.022 256.882 143.776 239.047 143.776 219.745 268.469 219.679 268.895 236.776 268.895 251.313 174.348 284.608 268.648 284.695 268.895 303.018 268.895 336.399 174.711 350.709 268.581 350.756 268.895 367.854 268.895 348.485 143.776"/></svg>